<svg width="56" height="56" viewBox="0 0 56 56" fill="none" xmlns="http://www.w3.org/2000/svg">
<g clip-path="url(#clip0_4052_1771)">
<path fill-rule="evenodd" clip-rule="evenodd" d="M17.5721 16.7733C18.4703 15.8751 19.9266 15.8751 20.8248 16.7733L28.3984 24.3469L35.9721 16.7733C36.8703 15.8751 38.3266 15.8751 39.2248 16.7733C40.1229 17.6715 40.1229 19.1277 39.2248 20.026L31.6511 27.5996L39.2248 35.1733C40.1229 36.0714 40.1229 37.5278 39.2248 38.4259C38.3266 39.3241 36.8703 39.3241 35.9721 38.4259L28.3984 30.8523L20.8248 38.4259C19.9266 39.3241 18.4703 39.3241 17.5721 38.4259C16.6739 37.5278 16.6739 36.0714 17.5721 35.1733L25.1458 27.5996L17.5721 20.026C16.6739 19.1277 16.6739 17.6715 17.5721 16.7733Z" fill="#373867"/>
</g>
<defs>
<clipPath id="clip0_4052_1771">
<rect width="55.2" height="55.2" fill="white" transform="translate(0.798828)"/>
</clipPath>
</defs>
</svg>
