<svg width="30" height="33" viewBox="0 0 30 33" fill="none" xmlns="http://www.w3.org/2000/svg">
<path d="M20.8933 2.87695H28.9286C29.2127 2.87695 29.4853 2.98066 29.6862 3.16527C29.8871 3.34988 30 3.60026 30 3.86133V5.83008C30 6.09115 29.8871 6.34153 29.6862 6.52614C29.4853 6.71074 29.2127 6.81445 28.9286 6.81445H1.07143C0.787268 6.81445 0.514746 6.71074 0.313814 6.52614C0.112882 6.34153 0 6.09115 0 5.83008V3.86133C0 3.60026 0.112882 3.34988 0.313814 3.16527C0.514746 2.98066 0.787268 2.87695 1.07143 2.87695H9.10762L9.74095 1.72633C9.87174 1.4807 10.075 1.27377 10.3276 1.12912C10.5802 0.984475 10.8719 0.907927 11.1695 0.908203H18.8238C19.1229 0.907999 19.4161 0.98446 19.6705 1.12899C19.9249 1.27352 20.1304 1.48039 20.2638 1.72633L20.8933 2.87695Z" fill="#373867"/>
<path d="M4.57007 31.6074C3.97415 31.0931 3.61397 30.3894 3.56286 29.6397L2.14286 8.7832H27.8571L26.4371 29.6397C26.386 30.3894 26.0259 31.0931 25.4299 31.6074C24.834 32.1218 24.0472 32.4081 23.2295 32.4082H6.77048C5.95285 32.4081 5.16598 32.1218 4.57007 31.6074Z" fill="#373867"/>
</svg>
